PathFileType	4	(X/Y/Z)	/Users/niels/Desktop/University/Third Semester/Perception and Action/Exam/Gymnastics Motion Tracking/Code for Gym Tracking/Scripts/Analyzed Data/Start Salto/st_salto_bad_id11_3_Sports2D/st_salto_bad_id11_3_Sports2D_px_person00.trc
DataRate	CameraRate	NumFrames	NumMarkers	Units	OrigDataRate	OrigDataStartFrame	OrigNumFrames
29.8051948051948	29.8051948051948	8	22	m	29.8051948051948	57	154
Frame#	Time	Hip			RHip			RKnee			RAnkle			RBigToe			RSmallToe			RHeel			LHip			LKnee			LAnkle			LBigToe			LSmallToe			LHeel			Neck			Head			Nose			RShoulder			RElbow			RWrist			LShoulder			LElbow			LWrist		
		X1	Y1	Z1	X2	Y2	Z2	X3	Y3	Z3	X4	Y4	Z4	X5	Y5	Z5	X6	Y6	Z6	X7	Y7	Z7	X8	Y8	Z8	X9	Y9	Z9	X10	Y10	Z10	X11	Y11	Z11	X12	Y12	Z12	X13	Y13	Z13	X14	Y14	Z14	X15	Y15	Z15	X16	Y16	Z16	X17	Y17	Z17	X18	Y18	Z18	X19	Y19	Z19	X20	Y20	Z20	X21	Y21	Z21	X22	Y22	Z22
57	1.9124183006535949	0.6869197786479376	-0.37703929212064846	0.0	0.6845052444691533	-0.3840540243015754	0.0	0.6939168019470608	-0.5188003585442166	0.0	0.5683596735430403	-0.5374531459035401	0.0	0.5363045032261873	-0.5880680745095197	0.0	0.5321337684266196	-0.5811601091728745	0.0	0.5486939561215167	-0.5343216862747999	0.0	0.6872312945068711	-0.3771614497104402	0.0	0.6885743475927947	-0.5072397183720146	0.0	0.5684544025302818	-0.5335309996114458	0.0	0.5370381927835014	-0.5828305747571958	0.0	0.5420110930870992	-0.5774865779661711	0.0	0.5526009247310906	-0.5288306598365919	0.0	0.8516192000155504	-0.42148087035561665	0.0	0.920499004628739	-0.47284063676251425	0.0	0.8697588592101635	-0.46565339385892024	0.0	0.8429039107660306	-0.4291875275240916	0.0	0.8109730818558223	-0.5048351744124661	0.0	0.8416965241366227	-0.5771337091244068	0.0	0.8451982416719945	-0.40722363583270493	0.0	0.8120495817423086	-0.49948175915082554	0.0	0.8341720067911902	-0.5602668513728725	0.0
58	1.9459694989106755	0.6965756226955757	-0.3725115980481638	0.0	0.6942457885029562	-0.37978783492837287	0.0	0.699202364645217	-0.5141389728922466	0.0	0.5726046091286572	-0.5228375309039909	0.0	0.5360263624188271	-0.5722924860548249	0.0	0.5326367772489962	-0.5650044708130927	0.0	0.5531328903475651	-0.5182374000380142	0.0	0.6962834491144229	-0.3729703844649784	0.0	0.692116175917521	-0.5007850995831927	0.0	0.5725614603806901	-0.5188554857442854	0.0	0.5368071414145713	-0.5661622824393312	0.0	0.5417591393061244	-0.562016976313134	0.0	0.5574705620408494	-0.5132833315401693	0.0	0.8567494725439058	-0.4261706912157794	0.0	0.9227475036139029	-0.4836623172326518	0.0	0.8709187256539956	-0.47226471878953613	0.0	0.8483949857899563	-0.43323168540886003	0.0	0.8110461855614647	-0.5065884324673644	0.0	0.8408291430453722	-0.5786932665604482	0.0	0.8513891482560186	-0.41078463907384805	0.0	0.8116707026909209	-0.4999686486731406	0.0	0.833123540289759	-0.5612298710421145	0.0
59	1.9795206971677561	0.7061644059227485	-0.36809881074375456	0.0	0.7037932012421898	-0.37544162747459386	0.0	0.7042968389874484	-0.5099388694571925	0.0	0.5771923961705657	-0.5095498532498456	0.0	0.5360342407574932	-0.5582843694222004	0.0	0.5335371587561093	-0.5502922034001556	0.0	0.5582064991806909	-0.5031921543118634	0.0	0.7052988146148906	-0.36893218239122794	0.0	0.696086505282257	-0.4950569316620863	0.0	0.5776710116991733	-0.5055508968224662	0.0	0.5376130037763694	-0.5512025586071784	0.0	0.5427525319088449	-0.5488838105544572	0.0	0.5632426246648975	-0.4988703450783681	0.0	0.8610407407423983	-0.43079427368018125	0.0	0.9245117868239433	-0.4931973455549107	0.0	0.8716479868569473	-0.4786966732837831	0.0	0.8533523224509221	-0.4370411810419005	0.0	0.8114638717670295	-0.5077622697154048	0.0	0.8398864257272444	-0.5803921234167284	0.0	0.8568777668929964	-0.41481482592417657	0.0	0.8116437807633109	-0.500217852912965	0.0	0.8319961135218472	-0.5622442624245122	0.0
60	2.0130718954248366	0.7155853585797011	-0.36362442648209686	0.0	0.7128854801415523	-0.37102311478089023	0.0	0.7093293910818943	-0.5062014599714613	0.0	0.5823847831312343	-0.4974932484804215	0.0	0.5367060737813358	-0.5457603991924578	0.0	0.5351127960725126	-0.5368404016813304	0.0	0.5642496463828602	-0.4893978298151903	0.0	0.7141696814021546	-0.3649050889732866	0.0	0.7010458305449595	-0.49046809548244186	0.0	0.5837864297817191	-0.49361409875830253	0.0	0.5393896723230942	-0.5377192201055895	0.0	0.5449717881139505	-0.5375985141730715	0.0	0.5699876732902783	-0.48561898894813016	0.0	0.8648430342440199	-0.4355597419469393	0.0	0.9256853518386887	-0.5014621920906911	0.0	0.8722808692403019	-0.48457046899942985	0.0	0.858074615954675	-0.44080864636632383	0.0	0.812165507500447	-0.5083026608106065	0.0	0.8391511113990212	-0.5821544737928652	0.0	0.8618464737558719	-0.419598052037025	0.0	0.8120227126004216	-0.5003584467923888	0.0	0.8311048754067671	-0.5631410854698917	0.0
61	2.046623093681917	0.7248356508675895	-0.3590413372199164	0.0	0.7214889428972114	-0.3665430904637204	0.0	0.7144554695122798	-0.5028290231464658	0.0	0.5884158339935506	-0.48627352286143954	0.0	0.538378928659025	-0.5341131631189062	0.0	0.537706931118615	-0.5242912795891941	0.0	0.5713657043460209	-0.47670303993302326	0.0	0.7228642742687545	-0.3608269242620391	0.0	0.7071929281864289	-0.4871560059357977	0.0	0.5904581813840654	-0.48273429605652624	0.0	0.5415418279821725	-0.5251911908575007	0.0	0.5476836527484509	-0.5272521099275468	0.0	0.5771579700591241	-0.4732645715910978	0.0	0.868504301752055	-0.4405629747081327	0.0	0.9260777800561237	-0.5089329626151353	0.0	0.8730919930841117	-0.489615291598582	0.0	0.8629175162769699	-0.44456490909758395	0.0	0.8130409010666304	-0.5082768325584202	0.0	0.8389517204010656	-0.583951227321905	0.0	0.8664936709138015	-0.4250610984724948	0.0	0.8128536691346379	-0.5004284913809326	0.0	0.8308342661514571	-0.5639014843427036	0.0
62	2.080174291938998	0.7339311323156253	-0.354548675332074	0.0	0.7297531329157865	-0.3621024322112849	0.0	0.7197397663312408	-0.49969032455359086	0.0	0.5952946378186492	-0.47544360141728115	0.0	0.5412456166345148	-0.5226215838579376	0.0	0.5415433198846895	-0.5121430054813457	0.0	0.5793326345538514	-0.4647033650338499	0.0	0.7313660036480155	-0.35679714569181387	0.0	0.7142602077528346	-0.4847523695574818	0.0	0.5972898384371521	-0.4724654539362046	0.0	0.5438998587154416	-0.5130907198183795	0.0	0.5504797490749616	-0.5167993246500256	0.0	0.5842980666783122	-0.46141919745591975	0.0	0.8722882578474804	-0.4456574782056334	0.0	0.925474344325698	-0.5161312534940674	0.0	0.8741234977817757	-0.4937602045591214	0.0	0.8680613100812908	-0.44809203569458983	0.0	0.814003538729446	-0.5077706360797172	0.0	0.8393402153740396	-0.5857039040262219	0.0	0.8709659317240734	-0.4308584757397291	0.0	0.8141431101864691	-0.5004055667711147	0.0	0.8313546489495118	-0.5646590843155851	0.0
63	2.1137254901960785	0.7429547891132028	-0.35052550525861736	0.0	0.7379045374575236	-0.357918610002998	0.0	0.7251381879942531	-0.4966560700628986	0.0	0.6028116441979614	-0.46466869092397517	0.0	0.5455890955805202	-0.5106520239040017	0.0	0.5468612497786791	-0.4998210064014547	0.0	0.5877345443152496	-0.45302234618501114	0.0	0.739759884418704	-0.3531012714146872	0.0	0.7218293520317495	-0.48253541313077863	0.0	0.6044580619107842	-0.4623794959390317	0.0	0.5476977184203288	-0.5010548265672534	0.0	0.5544293937840905	-0.5053677068501251	0.0	0.591769544489233	-0.4498356099979339	0.0	0.8763755853021782	-0.45051802127742613	0.0	0.9236871157165013	-0.5232828037297387	0.0	0.8751050066921378	-0.4971330456984889	0.0	0.8734290332488878	-0.45101660183146136	0.0	0.8151036597653352	-0.5068483484719895	0.0	0.8400863299631862	-0.587217269502755	0.0	0.8754127281247845	-0.4365166206599692	0.0	0.8159072570693343	-0.5002950327946816	0.0	0.8326664311366407	-0.5656341024167787	0.0
64	2.147276688453159	0.7521357959296882	-0.3472996708626737	0.0	0.7462152430235908	-0.3542046050541877	0.0	0.7306154409502403	-0.4935473832042189	0.0	0.6107716812777866	-0.45368692314679915	0.0	0.5518484902458732	-0.49775904099156887	0.0	0.554011554066463	-0.48682213563652577	0.0	0.5962475041799914	-0.4414312164132614	0.0	0.7483400882922574	-0.3500402635173215	0.0	0.7296499092935014	-0.4798083088440282	0.0	0.6125478327651258	-0.45210176204265273	0.0	0.5547780713723998	-0.4888287494016803	0.0	0.5613912843087665	-0.4925565201861221	0.0	0.6003963924200828	-0.4384566959975472	0.0	0.8808534129701493	-0.4549112764527544	0.0	0.9207252991575708	-0.5303664213687787	0.0	0.8756829496042552	-0.5000387503154613	0.0	0.8789139883650329	-0.4530879057380002	0.0	0.8165178347253335	-0.5055592333457928	0.0	0.8408598398879122	-0.5881614498999542	0.0	0.880069044891724	-0.4416492272205355	0.0	0.818175670819471	-0.5001027997751379	0.0	0.8346500079760167	-0.5667347380099709	0.0
